<svg xmlns="http://www.w3.org/2000/svg" xmlns:xlink="http://www.w3.org/1999/xlink" width="1080" zoomAndPan="magnify" viewBox="0 0 810 809.999993" height="1080" preserveAspectRatio="xMidYMid meet" version="1.0"><defs><clipPath id="9aad496799"><path d="M 211 54.933594 L 440 54.933594 L 440 259 L 211 259 Z M 211 54.933594 " clip-rule="nonzero"/></clipPath><clipPath id="4ba987eba6"><path d="M 618 214 L 798.417969 214 L 798.417969 487 L 618 487 Z M 618 214 " clip-rule="nonzero"/></clipPath><clipPath id="a057973204"><path d="M 349 687 L 442 687 L 442 755.433594 L 349 755.433594 Z M 349 687 " clip-rule="nonzero"/></clipPath><clipPath id="8b8f372652"><path d="M 11.667969 281 L 75 281 L 75 327 L 11.667969 327 Z M 11.667969 281 " clip-rule="nonzero"/></clipPath><clipPath id="becbdfc81e"><path d="M 243 348.226562 L 567 348.226562 L 567 672.226562 L 243 672.226562 Z M 243 348.226562 " clip-rule="nonzero"/></clipPath></defs><path fill="#890000" d="M 211.730469 234.800781 L 98.675781 234.800781 L 98.675781 121.746094 L 211.730469 121.746094 Z M 233.882812 99.59375 L 76.523438 99.59375 L 76.523438 256.953125 L 233.882812 256.953125 L 233.882812 99.59375 " fill-opacity="1" fill-rule="nonzero"/><path fill="#890000" d="M 189.582031 143.898438 L 120.828125 143.898438 L 120.828125 212.648438 L 189.582031 212.648438 L 189.582031 143.898438 " fill-opacity="1" fill-rule="nonzero"/><path fill="#890000" d="M 709.785156 234.800781 L 596.730469 234.800781 L 596.730469 121.746094 L 709.785156 121.746094 Z M 731.9375 99.59375 L 574.578125 99.59375 L 574.578125 256.953125 L 731.9375 256.953125 L 731.9375 99.59375 " fill-opacity="1" fill-rule="nonzero"/><path fill="#890000" d="M 687.632812 143.898438 L 618.882812 143.898438 L 618.882812 212.648438 L 687.632812 212.648438 L 687.632812 143.898438 " fill-opacity="1" fill-rule="nonzero"/><g clip-path="url(#9aad496799)"><path fill="#890000" d="M 393.535156 258.480469 L 416.453125 258.480469 L 416.453125 235.566406 L 439.367188 235.566406 L 439.367188 212.648438 L 416.453125 212.648438 L 416.453125 166.816406 L 325.550781 166.816406 L 325.550781 143.898438 L 370.621094 143.898438 L 370.621094 120.980469 L 324.789062 120.980469 L 324.789062 143.898438 L 302.636719 143.898438 L 302.636719 99.59375 L 280.101562 99.59375 L 280.101562 77.058594 L 257.183594 77.058594 L 257.183594 54.90625 L 211.351562 54.90625 L 211.351562 77.824219 L 257.183594 77.824219 L 257.183594 99.976562 L 279.71875 99.976562 L 279.71875 120.980469 L 256.800781 120.980469 L 256.800781 143.898438 L 279.71875 143.898438 L 279.71875 166.816406 L 256.800781 166.816406 L 256.800781 189.734375 L 302.636719 189.734375 L 302.636719 166.816406 L 324.789062 166.816406 L 324.789062 189.734375 L 302.636719 189.734375 L 302.636719 235.566406 L 279.71875 235.566406 L 279.71875 212.648438 L 256.800781 212.648438 L 256.800781 258.480469 L 325.550781 258.480469 L 325.550781 189.734375 L 393.535156 189.734375 L 393.535156 212.648438 L 370.621094 212.648438 L 370.621094 235.566406 L 393.535156 235.566406 L 393.535156 258.480469 " fill-opacity="1" fill-rule="nonzero"/></g><path fill="#890000" d="M 439.367188 212.648438 L 462.285156 212.648438 L 462.285156 189.734375 L 439.367188 189.734375 L 439.367188 212.648438 " fill-opacity="1" fill-rule="nonzero"/><path fill="#890000" d="M 484.441406 189.734375 L 484.441406 212.648438 L 529.507812 212.648438 L 529.507812 189.734375 L 485.203125 189.734375 L 485.203125 166.816406 L 462.285156 166.816406 L 462.285156 189.734375 L 484.441406 189.734375 " fill-opacity="1" fill-rule="nonzero"/><path fill="#890000" d="M 462.285156 166.816406 L 462.285156 143.898438 L 416.453125 143.898438 L 416.453125 166.816406 L 462.285156 166.816406 " fill-opacity="1" fill-rule="nonzero"/><path fill="#890000" d="M 506.972656 122.890625 L 506.972656 122.511719 L 529.507812 122.511719 L 529.507812 99.59375 L 529.128906 99.59375 L 529.128906 98.449219 L 552.042969 98.449219 L 552.042969 75.53125 L 529.128906 75.53125 L 529.128906 77.058594 L 506.210938 77.058594 L 506.210938 99.976562 L 461.140625 99.976562 L 461.140625 122.890625 L 506.972656 122.890625 " fill-opacity="1" fill-rule="nonzero"/><path fill="#890000" d="M 530.273438 166.816406 L 530.273438 189.734375 L 553.1875 189.734375 L 553.1875 143.898438 L 530.273438 143.898438 L 530.273438 166.816406 " fill-opacity="1" fill-rule="nonzero"/><path fill="#890000" d="M 508.121094 143.898438 L 485.203125 143.898438 L 485.203125 166.816406 L 508.121094 166.816406 L 508.121094 143.898438 " fill-opacity="1" fill-rule="nonzero"/><path fill="#890000" d="M 258.328125 281.398438 L 211.730469 281.398438 L 211.730469 304.316406 L 258.328125 304.316406 L 258.328125 281.398438 " fill-opacity="1" fill-rule="nonzero"/><path fill="#890000" d="M 188.050781 483.828125 L 142.21875 483.828125 L 142.21875 463.203125 L 188.050781 463.203125 Z M 327.078125 440.285156 L 327.078125 417.371094 L 304.160156 417.371094 L 304.160156 394.453125 L 281.246094 394.453125 L 281.246094 417.371094 L 235.414062 417.371094 L 235.414062 439.523438 L 210.964844 439.523438 L 210.964844 394.453125 L 189.582031 394.453125 L 189.582031 373.0625 L 211.730469 373.0625 L 211.730469 304.316406 L 188.816406 304.316406 L 188.816406 350.148438 L 167.425781 350.148438 L 167.425781 327.230469 L 148.328125 327.230469 L 148.328125 304.316406 L 188.050781 304.316406 L 188.050781 281.398438 L 142.21875 281.398438 L 142.21875 304.316406 L 121.59375 304.316406 L 121.59375 281.398438 L 75.761719 281.398438 L 75.761719 304.316406 L 102.496094 304.316406 L 102.496094 327.230469 L 76.523438 327.230469 L 76.523438 373.0625 L 99.441406 373.0625 L 99.441406 395.21875 L 76.523438 395.21875 L 76.523438 441.050781 L 99.441406 441.050781 L 99.441406 395.980469 L 119.300781 395.980469 L 119.300781 440.285156 L 142.21875 440.285156 L 142.21875 394.453125 L 122.359375 394.453125 L 122.359375 327.230469 L 144.507812 327.230469 L 144.507812 395.980469 L 188.050781 395.980469 L 188.050781 440.285156 L 210.964844 440.285156 L 210.964844 462.4375 L 188.050781 462.4375 L 188.050781 440.285156 L 142.21875 440.285156 L 142.21875 461.675781 L 119.300781 461.675781 L 119.300781 484.59375 L 142.21875 484.59375 L 142.21875 529.660156 L 188.050781 529.660156 L 188.050781 551.050781 L 210.964844 551.050781 L 210.964844 528.132812 L 188.050781 528.132812 L 188.050781 485.355469 L 210.964844 485.355469 L 210.964844 508.273438 L 258.328125 508.273438 L 258.328125 440.285156 L 281.246094 440.285156 L 281.246094 463.203125 L 304.160156 463.203125 L 304.160156 440.285156 L 327.078125 440.285156 " fill-opacity="1" fill-rule="nonzero"/><path fill="#890000" d="M 281.246094 531.191406 L 304.160156 531.191406 L 304.160156 599.941406 L 258.710938 599.941406 L 258.710938 577.402344 L 235.792969 577.402344 L 235.792969 600.320312 L 258.328125 600.320312 L 258.328125 645.769531 L 281.246094 645.769531 L 281.246094 622.855469 L 304.160156 622.855469 L 304.160156 645.769531 L 327.078125 645.769531 L 327.078125 668.6875 L 349.992188 668.6875 L 349.992188 599.941406 L 327.078125 599.941406 L 327.078125 508.273438 L 258.328125 508.273438 L 258.328125 531.191406 L 281.246094 531.191406 " fill-opacity="1" fill-rule="nonzero"/><path fill="#890000" d="M 32.601562 246.640625 L 50.933594 246.640625 L 50.933594 262.910156 L 32.601562 262.910156 Z M 32.601562 281.246094 L 50.933594 281.246094 L 50.933594 263.523438 L 69.265625 263.523438 L 69.265625 245.191406 L 50.933594 245.191406 L 50.933594 182.472656 L 32.601562 182.472656 L 32.601562 245.800781 L 14.265625 245.800781 L 14.265625 264.132812 L 32.601562 264.132812 L 32.601562 281.246094 " fill-opacity="1" fill-rule="nonzero"/><path fill="#890000" d="M 257.949219 373.449219 L 257.949219 350.53125 L 280.863281 350.53125 L 280.863281 327.613281 L 257.949219 327.613281 L 257.949219 328.375 L 235.03125 328.375 L 235.03125 396.363281 L 257.949219 396.363281 L 257.949219 373.449219 " fill-opacity="1" fill-rule="nonzero"/><path fill="#890000" d="M 327.078125 371.539062 L 304.160156 371.539062 L 304.160156 394.453125 L 349.992188 394.453125 L 349.992188 371.539062 L 327.078125 371.539062 " fill-opacity="1" fill-rule="nonzero"/><path fill="#890000" d="M 235.414062 554.105469 L 258.328125 554.105469 L 258.328125 531.191406 L 235.414062 531.191406 L 235.414062 554.105469 " fill-opacity="1" fill-rule="nonzero"/><path fill="#890000" d="M 528.742188 596.117188 L 528.742188 641.953125 L 551.660156 641.953125 L 551.660156 573.203125 L 528.742188 573.203125 L 528.742188 596.117188 " fill-opacity="1" fill-rule="nonzero"/><path fill="#890000" d="M 618.882812 486.882812 L 618.882812 509.800781 L 664.714844 509.800781 L 664.714844 486.882812 L 618.882812 486.882812 " fill-opacity="1" fill-rule="nonzero"/><g clip-path="url(#4ba987eba6)"><path fill="#890000" d="M 710.550781 350.910156 L 732.320312 350.910156 L 732.320312 351.292969 L 732.703125 351.292969 L 732.703125 372.300781 L 710.550781 372.300781 Z M 755.238281 328.375 L 755.238281 306.226562 L 776.625 306.226562 L 776.625 260.390625 L 798.015625 260.390625 L 798.015625 237.476562 L 777.390625 237.476562 L 777.390625 214.558594 L 754.472656 214.558594 L 754.472656 260.390625 L 753.710938 260.390625 L 753.710938 306.226562 L 732.703125 306.226562 L 732.703125 281.398438 L 686.871094 281.398438 L 686.871094 304.316406 L 709.785156 304.316406 L 709.785156 350.148438 L 664.714844 350.148438 L 664.714844 281.398438 L 618.882812 281.398438 L 618.882812 304.316406 L 641.800781 304.316406 L 641.800781 373.0625 L 710.550781 373.0625 L 710.550781 441.050781 L 687.632812 441.050781 L 687.632812 418.136719 L 664.714844 418.136719 L 664.714844 441.050781 L 641.800781 441.050781 L 641.800781 463.96875 L 664.714844 463.96875 L 664.714844 486.882812 L 687.632812 486.882812 L 687.632812 463.96875 L 733.46875 463.96875 L 733.46875 373.828125 L 777.769531 373.828125 L 777.769531 350.910156 L 755.238281 350.910156 L 755.238281 328.375 " fill-opacity="1" fill-rule="nonzero"/></g><path fill="#890000" d="M 528.742188 417.371094 L 482.910156 417.371094 L 482.910156 396.746094 L 528.742188 396.746094 Z M 618.882812 418.136719 L 664.714844 418.136719 L 664.714844 395.21875 L 574.578125 395.21875 L 574.578125 373.0625 L 551.660156 373.0625 L 551.660156 350.910156 L 595.964844 350.910156 L 595.964844 373.0625 L 618.882812 373.0625 L 618.882812 327.230469 L 597.496094 327.230469 L 597.496094 305.078125 L 574.578125 305.078125 L 574.578125 327.996094 L 551.660156 327.996094 L 551.660156 304.316406 L 574.578125 304.316406 L 574.578125 281.398438 L 551.660156 281.398438 L 551.660156 235.566406 L 528.742188 235.566406 L 528.742188 258.480469 L 505.828125 258.480469 L 505.828125 235.566406 L 482.910156 235.566406 L 482.910156 280.632812 L 462.285156 280.632812 L 462.285156 235.566406 L 439.367188 235.566406 L 439.367188 281.398438 L 459.996094 281.398438 L 459.996094 373.828125 L 482.910156 373.828125 L 482.910156 281.398438 L 528.742188 281.398438 L 528.742188 305.078125 L 505.828125 305.078125 L 505.828125 350.910156 L 528.742188 350.910156 L 528.742188 373.828125 L 551.660156 373.828125 L 551.660156 395.980469 L 528.742188 395.980469 L 528.742188 373.828125 L 482.910156 373.828125 L 482.910156 395.21875 L 459.996094 395.21875 L 459.996094 415.082031 L 439.367188 415.082031 L 439.367188 392.164062 L 416.453125 392.164062 L 416.453125 372.300781 L 439.367188 372.300781 L 439.367188 349.382812 L 393.535156 349.382812 L 393.535156 327.996094 L 349.992188 327.996094 L 349.992188 304.316406 L 393.535156 304.316406 L 393.535156 326.464844 L 416.453125 326.464844 L 416.453125 304.316406 L 439.367188 304.316406 L 439.367188 281.398438 L 370.621094 281.398438 L 370.621094 235.566406 L 347.703125 235.566406 L 347.703125 281.398438 L 279.71875 281.398438 L 279.71875 304.316406 L 258.328125 304.316406 L 258.328125 327.230469 L 281.246094 327.230469 L 281.246094 304.316406 L 327.078125 304.316406 L 327.078125 327.996094 L 304.160156 327.996094 L 304.160156 350.910156 L 393.535156 350.910156 L 393.535156 372.300781 L 370.621094 372.300781 L 370.621094 394.453125 L 349.992188 394.453125 L 349.992188 463.203125 L 304.160156 463.203125 L 304.160156 486.121094 L 372.910156 486.121094 L 372.910156 508.273438 L 349.992188 508.273438 L 349.992188 554.105469 L 372.910156 554.105469 L 372.910156 596.882812 L 395.828125 596.882812 L 395.828125 573.96875 L 418.746094 573.96875 L 418.746094 619.800781 L 441.664062 619.800781 L 441.664062 642.714844 L 464.578125 642.714844 L 464.578125 664.867188 L 441.664062 664.867188 L 441.664062 687.785156 L 464.578125 687.785156 L 464.578125 710.703125 L 487.496094 710.703125 L 487.496094 641.953125 L 464.578125 641.953125 L 464.578125 619.800781 L 510.410156 619.800781 L 510.410156 596.882812 L 510.03125 596.882812 L 510.03125 552.195312 L 487.113281 552.195312 L 487.113281 596.882812 L 464.578125 596.882812 L 464.578125 573.96875 L 441.664062 573.96875 L 441.664062 551.050781 L 372.910156 551.050781 L 372.910156 528.898438 L 395.828125 528.898438 L 395.828125 483.0625 L 372.910156 483.0625 L 372.910156 395.21875 L 416.453125 395.21875 L 416.453125 437.996094 L 459.996094 437.996094 L 459.996094 418.136719 L 482.910156 418.136719 L 482.910156 463.203125 L 505.828125 463.203125 L 505.828125 440.285156 L 528.742188 440.285156 L 528.742188 418.898438 L 551.660156 418.898438 L 551.660156 441.816406 L 574.578125 441.816406 L 574.578125 463.96875 L 595.964844 463.96875 L 595.964844 486.882812 L 618.882812 486.882812 L 618.882812 418.136719 " fill-opacity="1" fill-rule="nonzero"/><g clip-path="url(#a057973204)"><path fill="#890000" d="M 418.746094 710.320312 L 419.128906 710.320312 L 419.128906 687.402344 L 396.210938 687.402344 L 396.210938 709.175781 L 373.292969 709.175781 L 373.292969 687.402344 L 350.378906 687.402344 L 350.378906 709.175781 L 349.992188 709.175781 L 349.992188 732.089844 L 395.828125 732.089844 L 395.828125 755.007812 L 418.746094 755.007812 L 418.746094 733.621094 L 441.664062 733.621094 L 441.664062 710.703125 L 418.746094 710.703125 L 418.746094 710.320312 " fill-opacity="1" fill-rule="nonzero"/></g><path fill="#890000" d="M 441.664062 505.980469 L 441.664062 460.148438 L 418.746094 460.148438 L 418.746094 528.898438 L 487.496094 528.898438 L 487.496094 505.980469 L 441.664062 505.980469 " fill-opacity="1" fill-rule="nonzero"/><path fill="#890000" d="M 372.910156 616.746094 L 372.910156 685.492188 L 395.828125 685.492188 L 395.828125 662.578125 L 418.746094 662.578125 L 418.746094 639.660156 L 395.828125 639.660156 L 395.828125 616.746094 L 372.910156 616.746094 " fill-opacity="1" fill-rule="nonzero"/><path fill="#890000" d="M 599.023438 528.132812 L 579.160156 528.132812 L 579.160156 505.980469 L 553.1875 505.980469 L 553.1875 463.96875 L 530.273438 463.96875 L 530.273438 505.980469 L 510.410156 505.980469 L 510.410156 528.898438 L 579.160156 528.898438 L 579.160156 573.96875 L 602.078125 573.96875 L 602.078125 551.050781 L 621.9375 551.050781 L 621.9375 528.132812 L 599.023438 528.132812 " fill-opacity="1" fill-rule="nonzero"/><path fill="#890000" d="M 487.496094 483.0625 L 487.496094 505.980469 L 510.410156 505.980469 L 510.410156 483.0625 L 487.496094 483.0625 " fill-opacity="1" fill-rule="nonzero"/><path fill="#890000" d="M 326.699219 691.988281 L 349.613281 691.988281 L 349.613281 669.070312 L 326.699219 669.070312 L 326.699219 691.988281 " fill-opacity="1" fill-rule="nonzero"/><path fill="#890000" d="M 281.625 554.488281 L 258.710938 554.488281 L 258.710938 577.402344 L 281.625 577.402344 L 281.625 554.488281 " fill-opacity="1" fill-rule="nonzero"/><path fill="#890000" d="M 777.390625 179.417969 L 754.472656 179.417969 L 754.472656 202.335938 L 777.390625 202.335938 L 777.390625 179.417969 " fill-opacity="1" fill-rule="nonzero"/><path fill="#890000" d="M 33.363281 392.542969 L 56.277344 392.542969 L 56.277344 346.710938 L 33.363281 346.710938 L 33.363281 392.542969 " fill-opacity="1" fill-rule="nonzero"/><g clip-path="url(#8b8f372652)"><path fill="#890000" d="M 53.222656 281.777344 L 11.976562 281.777344 L 11.976562 304.695312 L 51.699219 304.695312 L 51.699219 326.851562 L 74.613281 326.851562 L 74.613281 303.933594 L 53.222656 303.933594 L 53.222656 281.777344 " fill-opacity="1" fill-rule="nonzero"/></g><g clip-path="url(#becbdfc81e)"><path fill="#fee5e4" d="M 567 510.226562 C 567 512.878906 566.933594 515.527344 566.804688 518.175781 C 566.675781 520.824219 566.480469 523.46875 566.21875 526.105469 C 565.960938 528.742188 565.636719 531.375 565.246094 533.996094 C 564.859375 536.621094 564.40625 539.230469 563.886719 541.832031 C 563.371094 544.429688 562.789062 547.015625 562.144531 549.589844 C 561.5 552.160156 560.792969 554.714844 560.023438 557.253906 C 559.253906 559.789062 558.421875 562.304688 557.53125 564.800781 C 556.636719 567.300781 555.683594 569.773438 554.667969 572.222656 C 553.652344 574.671875 552.578125 577.09375 551.445312 579.492188 C 550.3125 581.886719 549.121094 584.253906 547.871094 586.59375 C 546.621094 588.929688 545.316406 591.238281 543.953125 593.511719 C 542.589844 595.785156 541.171875 598.023438 539.699219 600.230469 C 538.226562 602.433594 536.699219 604.601562 535.121094 606.730469 C 533.539062 608.859375 531.910156 610.949219 530.226562 613 C 528.546875 615.046875 526.816406 617.054688 525.035156 619.019531 C 523.253906 620.984375 521.425781 622.902344 519.550781 624.777344 C 517.675781 626.652344 515.757812 628.480469 513.792969 630.261719 C 511.828125 632.042969 509.820312 633.773438 507.773438 635.453125 C 505.722656 637.136719 503.632812 638.765625 501.503906 640.347656 C 499.375 641.925781 497.207031 643.453125 495.003906 644.925781 C 492.796875 646.398438 490.558594 647.816406 488.285156 649.179688 C 486.011719 650.542969 483.703125 651.847656 481.367188 653.097656 C 479.027344 654.347656 476.660156 655.539062 474.265625 656.671875 C 471.867188 657.804688 469.445312 658.878906 466.996094 659.894531 C 464.546875 660.910156 462.074219 661.863281 459.574219 662.757812 C 457.078125 663.648438 454.5625 664.480469 452.027344 665.25 C 449.488281 666.019531 446.933594 666.726562 444.363281 667.371094 C 441.789062 668.015625 439.203125 668.597656 436.605469 669.113281 C 434.003906 669.632812 431.394531 670.085938 428.769531 670.472656 C 426.148438 670.863281 423.515625 671.1875 420.878906 671.445312 C 418.242188 671.707031 415.597656 671.902344 412.949219 672.03125 C 410.300781 672.160156 407.652344 672.226562 405 672.226562 C 402.347656 672.226562 399.699219 672.160156 397.050781 672.03125 C 394.402344 671.902344 391.757812 671.707031 389.121094 671.445312 C 386.484375 671.1875 383.851562 670.863281 381.230469 670.472656 C 378.605469 670.085938 375.996094 669.632812 373.394531 669.113281 C 370.796875 668.597656 368.210938 668.015625 365.636719 667.371094 C 363.066406 666.726562 360.511719 666.019531 357.972656 665.25 C 355.4375 664.480469 352.921875 663.648438 350.425781 662.757812 C 347.925781 661.863281 345.453125 660.910156 343.003906 659.894531 C 340.554688 658.878906 338.132812 657.804688 335.734375 656.671875 C 333.339844 655.539062 330.972656 654.347656 328.632812 653.097656 C 326.296875 651.847656 323.988281 650.542969 321.714844 649.179688 C 319.441406 647.816406 317.203125 646.398438 314.996094 644.925781 C 312.792969 643.453125 310.625 641.925781 308.496094 640.347656 C 306.367188 638.765625 304.277344 637.136719 302.226562 635.453125 C 300.179688 633.773438 298.171875 632.042969 296.207031 630.261719 C 294.242188 628.480469 292.324219 626.652344 290.449219 624.777344 C 288.574219 622.902344 286.746094 620.984375 284.964844 619.019531 C 283.183594 617.054688 281.453125 615.046875 279.773438 613 C 278.089844 610.949219 276.460938 608.859375 274.878906 606.730469 C 273.300781 604.601562 271.773438 602.433594 270.300781 600.230469 C 268.828125 598.023438 267.410156 595.785156 266.046875 593.511719 C 264.683594 591.238281 263.378906 588.929688 262.128906 586.59375 C 260.878906 584.253906 259.6875 581.886719 258.554688 579.492188 C 257.421875 577.09375 256.347656 574.671875 255.332031 572.222656 C 254.316406 569.773438 253.363281 567.300781 252.46875 564.800781 C 251.578125 562.304688 250.746094 559.789062 249.976562 557.253906 C 249.207031 554.714844 248.5 552.160156 247.855469 549.589844 C 247.210938 547.015625 246.628906 544.429688 246.113281 541.832031 C 245.59375 539.230469 245.140625 536.621094 244.753906 533.996094 C 244.363281 531.375 244.039062 528.742188 243.78125 526.105469 C 243.519531 523.46875 243.324219 520.824219 243.195312 518.175781 C 243.066406 515.527344 243 512.878906 243 510.226562 C 243 507.574219 243.066406 504.925781 243.195312 502.277344 C 243.324219 499.628906 243.519531 496.984375 243.78125 494.347656 C 244.039062 491.710938 244.363281 489.078125 244.753906 486.457031 C 245.140625 483.832031 245.59375 481.222656 246.113281 478.621094 C 246.628906 476.023438 247.210938 473.4375 247.855469 470.863281 C 248.5 468.292969 249.207031 465.738281 249.976562 463.199219 C 250.746094 460.664062 251.578125 458.148438 252.46875 455.652344 C 253.363281 453.152344 254.316406 450.679688 255.332031 448.230469 C 256.347656 445.78125 257.421875 443.359375 258.554688 440.960938 C 259.6875 438.566406 260.878906 436.199219 262.128906 433.859375 C 263.378906 431.523438 264.683594 429.214844 266.046875 426.941406 C 267.410156 424.667969 268.828125 422.429688 270.300781 420.222656 C 271.773438 418.019531 273.300781 415.851562 274.878906 413.722656 C 276.460938 411.59375 278.089844 409.503906 279.773438 407.453125 C 281.453125 405.40625 283.183594 403.398438 284.964844 401.433594 C 286.746094 399.46875 288.574219 397.550781 290.449219 395.675781 C 292.324219 393.800781 294.242188 391.972656 296.207031 390.191406 C 298.171875 388.410156 300.179688 386.679688 302.226562 385 C 304.277344 383.316406 306.367188 381.6875 308.496094 380.105469 C 310.625 378.527344 312.792969 377 314.996094 375.527344 C 317.203125 374.054688 319.441406 372.636719 321.714844 371.273438 C 323.988281 369.910156 326.296875 368.605469 328.632812 367.355469 C 330.972656 366.105469 333.339844 364.914062 335.734375 363.78125 C 338.132812 362.648438 340.554688 361.574219 343.003906 360.558594 C 345.453125 359.542969 347.925781 358.589844 350.425781 357.695312 C 352.921875 356.804688 355.4375 355.972656 357.972656 355.203125 C 360.511719 354.433594 363.066406 353.726562 365.636719 353.082031 C 368.210938 352.4375 370.796875 351.855469 373.394531 351.339844 C 375.996094 350.820312 378.605469 350.367188 381.230469 349.980469 C 383.851562 349.589844 386.484375 349.265625 389.121094 349.007812 C 391.757812 348.746094 394.402344 348.550781 397.050781 348.421875 C 399.699219 348.292969 402.347656 348.226562 405 348.226562 C 407.652344 348.226562 410.300781 348.292969 412.949219 348.421875 C 415.597656 348.550781 418.242188 348.746094 420.878906 349.007812 C 423.515625 349.265625 426.148438 349.589844 428.769531 349.980469 C 431.394531 350.367188 434.003906 350.820312 436.605469 351.339844 C 439.203125 351.855469 441.789062 352.4375 444.363281 353.082031 C 446.933594 353.726562 449.488281 354.433594 452.027344 355.203125 C 454.5625 355.972656 457.078125 356.804688 459.574219 357.695312 C 462.074219 358.589844 464.546875 359.542969 466.996094 360.558594 C 469.445312 361.574219 471.867188 362.648438 474.265625 363.78125 C 476.660156 364.914062 479.027344 366.105469 481.367188 367.355469 C 483.703125 368.605469 486.011719 369.910156 488.285156 371.273438 C 490.558594 372.636719 492.796875 374.054688 495.003906 375.527344 C 497.207031 377 499.375 378.527344 501.503906 380.105469 C 503.632812 381.6875 505.722656 383.316406 507.773438 385 C 509.820312 386.679688 511.828125 388.410156 513.792969 390.191406 C 515.757812 391.972656 517.675781 393.800781 519.550781 395.675781 C 521.425781 397.550781 523.253906 399.46875 525.035156 401.433594 C 526.816406 403.398438 528.546875 405.40625 530.226562 407.453125 C 531.910156 409.503906 533.539062 411.59375 535.121094 413.722656 C 536.699219 415.851562 538.226562 418.019531 539.699219 420.222656 C 541.171875 422.429688 542.589844 424.667969 543.953125 426.941406 C 545.316406 429.214844 546.621094 431.523438 547.871094 433.859375 C 549.121094 436.199219 550.3125 438.566406 551.445312 440.960938 C 552.578125 443.359375 553.652344 445.78125 554.667969 448.230469 C 555.683594 450.679688 556.636719 453.152344 557.53125 455.652344 C 558.421875 458.148438 559.253906 460.664062 560.023438 463.199219 C 560.792969 465.738281 561.5 468.292969 562.144531 470.863281 C 562.789062 473.4375 563.371094 476.023438 563.886719 478.621094 C 564.40625 481.222656 564.859375 483.832031 565.246094 486.457031 C 565.636719 489.078125 565.960938 491.710938 566.21875 494.347656 C 566.480469 496.984375 566.675781 499.628906 566.804688 502.277344 C 566.933594 504.925781 567 507.574219 567 510.226562 Z M 567 510.226562 " fill-opacity="1" fill-rule="nonzero"/></g><path fill="#890000" d="M 377.210938 612.773438 C 345.070312 612.773438 324.933594 577.667969 341.050781 549.78125 L 350.523438 533.375 C 360.421875 516.207031 380.75 508.410156 399.5 514.292969 C 412.367188 498.171875 435.5625 493.582031 453.5 503.960938 C 473.539062 515.535156 480.429688 541.269531 468.851562 561.355469 L 459.382812 577.761719 C 451.730469 591.105469 437.714844 598.808594 423.078125 598.808594 C 418.871094 598.808594 414.613281 598.136719 410.40625 596.847656 C 402.226562 607.179688 389.789062 612.773438 377.210938 612.773438 Z M 411.839844 414.375 L 494.488281 414.375 C 502.285156 414.375 508.648438 420.6875 508.648438 428.53125 L 508.648438 434.464844 C 507.835938 433.984375 506.828125 433.746094 505.824219 433.746094 L 422.027344 433.746094 Z M 301.304688 434.464844 L 301.304688 425.136719 C 301.304688 415.523438 309.148438 407.679688 318.808594 407.679688 L 402.894531 407.679688 C 403.949219 407.679688 404.953125 408.253906 405.429688 409.160156 L 418.34375 433.746094 L 304.125 433.746094 C 303.121094 433.746094 302.164062 433.984375 301.304688 434.464844 Z M 367.214844 428.152344 C 371.136719 428.152344 374.339844 424.945312 374.339844 421.070312 C 374.339844 417.148438 371.136719 413.945312 367.214844 413.945312 C 363.292969 413.945312 360.136719 417.148438 360.136719 421.070312 C 360.136719 424.992188 363.292969 428.152344 367.214844 428.152344 Z M 367.214844 417.199219 C 369.367188 417.199219 371.089844 418.917969 371.089844 421.070312 C 371.089844 423.175781 369.367188 424.898438 367.214844 424.898438 C 365.109375 424.898438 363.386719 423.175781 363.386719 421.070312 C 363.386719 418.917969 365.109375 417.199219 367.214844 417.199219 Z M 346.550781 428.152344 C 350.472656 428.152344 353.679688 424.992188 353.679688 421.070312 C 353.679688 417.148438 350.472656 413.945312 346.550781 413.945312 C 342.628906 413.945312 339.472656 417.148438 339.472656 421.070312 C 339.472656 424.992188 342.628906 428.152344 346.550781 428.152344 Z M 346.550781 417.199219 C 348.703125 417.199219 350.425781 418.917969 350.425781 421.070312 C 350.425781 423.175781 348.703125 424.898438 346.550781 424.898438 C 344.398438 424.898438 342.675781 423.175781 342.675781 421.070312 C 342.675781 418.917969 344.398438 417.199219 346.550781 417.199219 Z M 325.890625 428.152344 C 329.8125 428.152344 333.015625 424.992188 333.015625 421.070312 C 333.015625 417.148438 329.8125 413.945312 325.890625 413.945312 C 321.96875 413.945312 318.761719 417.148438 318.761719 421.070312 C 318.761719 424.992188 321.96875 428.152344 325.890625 428.152344 Z M 325.890625 417.199219 C 328.042969 417.199219 329.761719 418.917969 329.761719 421.070312 C 329.761719 423.175781 328.042969 424.898438 325.890625 424.898438 C 323.738281 424.898438 322.015625 423.175781 322.015625 421.070312 C 322.015625 418.917969 323.738281 417.199219 325.890625 417.199219 Z M 498.078125 572.308594 L 466.269531 572.308594 L 471.675781 562.984375 C 484.160156 541.363281 476.695312 513.621094 455.125 501.140625 C 445.941406 495.828125 435.132812 494.011719 424.707031 495.878906 C 414.46875 497.695312 405.191406 502.859375 398.351562 510.609375 C 389.503906 508.265625 380.082031 508.695312 371.375 511.851562 C 361.378906 515.488281 353.058594 522.519531 347.699219 531.75 L 338.230469 548.203125 C 333.875 555.761719 331.964844 564.082031 332.203125 572.261719 L 311.875 572.261719 C 306.039062 572.261719 301.304688 567.574219 301.304688 561.738281 L 301.304688 439.820312 C 301.304688 438.242188 302.546875 437 304.125 437 L 505.824219 437 C 507.355469 437 508.648438 438.242188 508.648438 439.820312 L 508.648438 561.738281 C 508.648438 567.574219 503.914062 572.308594 498.078125 572.308594 Z M 483.394531 489.230469 C 484.300781 489.230469 485.019531 488.511719 485.019531 487.601562 C 485.019531 486.742188 484.300781 486.023438 483.394531 486.023438 L 326.558594 486.023438 C 325.648438 486.023438 324.933594 486.742188 324.933594 487.601562 C 324.933594 488.511719 325.648438 489.230469 326.558594 489.230469 Z M 483.394531 473.683594 C 484.300781 473.683594 485.019531 472.96875 485.019531 472.058594 C 485.019531 471.148438 484.300781 470.433594 483.394531 470.433594 L 326.558594 470.433594 C 325.648438 470.433594 324.933594 471.148438 324.933594 472.058594 C 324.933594 472.96875 325.648438 473.683594 326.558594 473.683594 Z M 483.394531 458.09375 C 484.300781 458.09375 485.019531 457.375 485.019531 456.511719 C 485.019531 455.605469 484.300781 454.886719 483.394531 454.886719 L 326.558594 454.886719 C 325.648438 454.886719 324.933594 455.605469 324.933594 456.511719 C 324.933594 457.375 325.648438 458.09375 326.558594 458.09375 Z M 388.59375 532.277344 C 380.175781 531.65625 371.996094 535.863281 367.691406 543.277344 L 358.222656 559.730469 C 352.101562 570.300781 355.734375 583.933594 366.304688 590.054688 C 375.203125 595.171875 386.011719 593.546875 393.136719 586.371094 C 379.9375 573.027344 377.066406 552.222656 386.585938 535.769531 Z M 404.28125 568.675781 L 406.101562 565.519531 C 410.261719 558.34375 409.925781 549.351562 405.621094 542.464844 L 403.757812 545.667969 C 399.644531 552.84375 399.976562 561.789062 404.28125 568.675781 Z M 416.71875 524.816406 C 429.96875 538.160156 432.789062 558.964844 423.320312 575.417969 C 423.269531 575.464844 422.503906 576.855469 421.308594 578.863281 C 429.726562 579.484375 437.953125 575.324219 442.257812 567.863281 L 451.730469 551.457031 C 457.851562 540.886719 454.21875 527.207031 443.597656 521.082031 C 434.703125 515.964844 423.894531 517.59375 416.71875 524.816406 Z M 416.71875 524.816406 " fill-opacity="1" fill-rule="evenodd"/></svg>