<svg xmlns="http://www.w3.org/2000/svg" xmlns:xlink="http://www.w3.org/1999/xlink" width="100" zoomAndPan="magnify" viewBox="0 0 75 74.999997" height="100" preserveAspectRatio="xMidYMid meet" version="1.0"><defs><clipPath id="553c1cf449"><path d="M 0.550781 0.550781 L 74.449219 0.550781 L 74.449219 74.449219 L 0.550781 74.449219 Z M 0.550781 0.550781 " clip-rule="nonzero"/></clipPath><clipPath id="2cd5d6429c"><path d="M 37.5 0.550781 C 17.09375 0.550781 0.550781 17.09375 0.550781 37.5 C 0.550781 57.90625 17.09375 74.449219 37.5 74.449219 C 57.90625 74.449219 74.449219 57.90625 74.449219 37.5 C 74.449219 17.09375 57.90625 0.550781 37.5 0.550781 Z M 37.5 0.550781 " clip-rule="nonzero"/></clipPath><clipPath id="8aee4ff19b"><path d="M 4.09375 4.09375 L 70.84375 4.09375 L 70.84375 70.84375 L 4.09375 70.84375 Z M 4.09375 4.09375 " clip-rule="nonzero"/></clipPath></defs><g clip-path="url(#553c1cf449)"><g clip-path="url(#2cd5d6429c)"><path fill="#daa520" d="M 0.550781 0.550781 L 74.449219 0.550781 L 74.449219 74.449219 L 0.550781 74.449219 Z M 0.550781 0.550781 " fill-opacity="1" fill-rule="nonzero"/></g></g><g clip-path="url(#8aee4ff19b)"><path fill="#ffffff" d="M 33.667969 4.625 C 32.765625 4.6875 31.84375 4.65625 30.964844 4.828125 C 22.941406 6.410156 16.367188 10.421875 11.273438 16.796875 C 8.046875 20.832031 5.828125 25.394531 4.769531 30.480469 C 4.074219 33.824219 3.949219 37.167969 4.238281 40.578125 C 4.898438 48.460938 8.070312 55.144531 13.550781 60.789062 C 14.472656 61.738281 15.707031 61.757812 16.609375 60.941406 C 17.695312 59.96875 17.839844 58.894531 16.957031 57.742188 C 16.203125 56.761719 15.320312 55.875 14.589844 54.875 C 10.066406 48.730469 8.066406 41.863281 8.910156 34.246094 C 9.761719 26.527344 13.363281 20.265625 19.273438 15.332031 C 23.496094 11.804688 28.429688 9.808594 33.882812 9.09375 C 34.640625 8.992188 35.421875 8.863281 36.117188 8.578125 C 37.011719 8.210938 37.449219 7.007812 37.234375 6.007812 C 36.996094 4.9375 36.246094 4.664062 35.277344 4.679688 C 34.738281 4.691406 34.199219 4.679688 33.664062 4.679688 L 33.664062 4.625 Z M 46.582031 14.117188 C 45.710938 14.09375 44.960938 14.664062 44.570312 15.542969 C 44.082031 16.65625 44.496094 17.917969 45.59375 18.59375 C 45.933594 18.800781 46.304688 18.964844 46.664062 19.148438 C 50.796875 21.199219 53.953125 24.253906 55.902344 28.449219 C 56.617188 29.992188 57.082031 31.652344 57.671875 33.253906 C 58.125 34.480469 59.089844 35.082031 60.234375 34.867188 C 61.417969 34.644531 62.097656 33.773438 62.09375 32.214844 C 62.050781 31.992188 61.996094 31.488281 61.867188 31.003906 C 60.375 25.523438 57.46875 20.941406 52.929688 17.511719 C 51.265625 16.25 49.367188 15.253906 47.480469 14.339844 C 47.195312 14.199219 46.894531 14.125 46.582031 14.117188 Z M 27.265625 14.757812 C 26.769531 14.753906 26.3125 14.890625 25.894531 15.15625 C 24.089844 16.238281 22.207031 17.285156 20.660156 18.683594 C 14.195312 24.523438 11.582031 31.917969 12.574219 40.507812 C 14.105469 53.699219 25.378906 62.835938 37.347656 62.507812 L 39.765625 62.503906 C 39.867188 62.503906 39.96875 62.5 40.070312 62.484375 C 47.003906 61.617188 52.820312 58.625 57.175781 53.132812 C 58.535156 51.421875 59.570312 49.414062 60.519531 47.429688 C 61.207031 45.972656 60.429688 44.695312 58.960938 44.3125 C 57.902344 44.03125 56.953125 44.625 56.246094 45.726562 C 54.929688 47.78125 53.769531 50.015625 52.097656 51.742188 C 47.980469 55.972656 42.851562 58.089844 36.882812 57.863281 C 30.1875 57.609375 24.808594 54.726562 20.851562 49.355469 C 17.824219 45.25 16.707031 40.535156 17.179688 35.480469 C 17.691406 29.949219 20.066406 25.335938 24.332031 21.765625 C 25.511719 20.78125 26.859375 20.003906 28.132812 19.132812 C 29.40625 18.257812 29.714844 17.144531 29.007812 15.933594 C 28.582031 15.203125 27.972656 14.78125 27.265625 14.757812 Z M 36.777344 20.789062 C 28.378906 20.949219 20.851562 28.101562 20.792969 37.496094 C 20.738281 46.65625 28.34375 54.246094 37.496094 54.253906 C 46.792969 54.269531 54.417969 46.96875 54.371094 37.484375 C 54.332031 27.613281 46.382812 20.546875 37.589844 20.792969 C 37.320312 20.785156 37.046875 20.785156 36.777344 20.789062 Z M 66.707031 24.03125 C 66.578125 24.023438 66.453125 24.023438 66.324219 24.035156 C 65.199219 24.125 64.539062 24.855469 64.265625 25.832031 C 64.117188 26.355469 64.238281 27.035156 64.441406 27.558594 C 65.753906 30.917969 66.355469 34.402344 66.246094 38.007812 C 66.148438 42.734375 64.921875 47.152344 62.574219 51.257812 C 58.070312 59.164062 51.328125 63.867188 42.410156 65.507812 C 41.457031 65.683594 40.476562 65.773438 39.535156 65.992188 C 38.328125 66.28125 37.621094 67.308594 37.75 68.449219 C 37.871094 69.507812 38.695312 70.246094 39.890625 70.351562 C 40.257812 70.386719 40.628906 70.359375 41 70.359375 L 40.996094 70.351562 C 41.398438 70.351562 41.804688 70.363281 42.203125 70.34375 C 42.4375 70.332031 42.667969 70.265625 42.898438 70.234375 C 48.042969 69.449219 52.691406 67.476562 56.921875 64.476562 C 61.675781 61.101562 65.277344 56.738281 67.769531 51.492188 C 70.832031 45.039062 71.597656 38.261719 70.292969 31.269531 C 69.929688 29.339844 69.304688 27.441406 68.664062 25.574219 C 68.316406 24.566406 67.582031 24.078125 66.707031 24.03125 Z M 37.621094 26.429688 C 37.980469 26.429688 38.347656 26.472656 38.710938 26.566406 C 40.679688 27.070312 41.941406 28.757812 41.933594 30.890625 C 42.007812 32.292969 41.347656 33.363281 40.296875 34.183594 C 39.722656 34.636719 39.640625 35.074219 39.808594 35.738281 C 40.542969 38.667969 41.253906 41.601562 41.929688 44.546875 C 42.292969 46.125 41.878906 46.972656 40.476562 47.8125 C 38.597656 48.9375 35.839844 48.796875 34.105469 47.453125 C 33.226562 46.773438 32.914062 45.855469 33.183594 44.761719 C 33.882812 41.890625 34.558594 39.015625 35.304688 36.160156 C 35.542969 35.242188 35.417969 34.617188 34.675781 33.949219 C 33.058594 32.496094 32.777344 30.460938 33.792969 28.652344 C 34.183594 27.960938 34.71875 27.417969 35.40625 27.019531 C 36.089844 26.621094 36.828125 26.421875 37.621094 26.425781 Z M 37.621094 26.429688 " fill-opacity="1" fill-rule="nonzero"/></g></svg>